<svg width="32" height="32" viewBox="0 0 32 32" fill="none" xmlns="http://www.w3.org/2000/svg">
<path d="M15.333 18.6667C20.853 18.6667 25.333 20.76 25.333 23.3333V26.6667H5.33301V23.3333C5.33301 20.76 9.81301 18.6667 15.333 18.6667ZM23.9997 23.3333C23.9997 21.4933 20.1197 20 15.333 20C10.5463 20 6.66634 21.4933 6.66634 23.3333V25.3333H23.9997V23.3333ZM15.333 6.66666C16.5707 6.66666 17.7577 7.15832 18.6328 8.03349C19.508 8.90866 19.9997 10.0956 19.9997 11.3333C19.9997 12.571 19.508 13.758 18.6328 14.6332C17.7577 15.5083 16.5707 16 15.333 16C14.0953 16 12.9083 15.5083 12.0332 14.6332C11.158 13.758 10.6663 12.571 10.6663 11.3333C10.6663 10.0956 11.158 8.90866 12.0332 8.03349C12.9083 7.15832 14.0953 6.66666 15.333 6.66666ZM15.333 7.99999C14.449 7.99999 13.6011 8.35118 12.976 8.9763C12.3509 9.60142 11.9997 10.4493 11.9997 11.3333C11.9997 12.2174 12.3509 13.0652 12.976 13.6903C13.6011 14.3155 14.449 14.6667 15.333 14.6667C16.2171 14.6667 17.0649 14.3155 17.69 13.6903C18.3152 13.0652 18.6663 12.2174 18.6663 11.3333C18.6663 10.4493 18.3152 9.60142 17.69 8.9763C17.0649 8.35118 16.2171 7.99999 15.333 7.99999Z" fill="white"/>
</svg>
