<svg width="28" height="28" viewBox="0 0 28 28" fill="none" xmlns="http://www.w3.org/2000/svg">
<path fill-rule="evenodd" clip-rule="evenodd" d="M23 14C23 17.6693 19.1903 21 14 21C8.80967 21 5 17.6693 5 14C5 10.3307 8.80967 7 14 7C19.1903 7 23 10.3307 23 14ZM24 14C24 18.4183 19.5228 22 14 22C8.47715 22 4 18.4183 4 14C4 9.58172 8.47715 6 14 6C19.5228 6 24 9.58172 24 14ZM18 14C18 16.2091 16.2091 18 14 18C11.7909 18 10 16.2091 10 14C10 11.7909 11.7909 10 14 10C16.2091 10 18 11.7909 18 14ZM19 14C19 16.7614 16.7614 19 14 19C11.2386 19 9 16.7614 9 14C9 11.2386 11.2386 9 14 9C16.7614 9 19 11.2386 19 14Z" fill="#E8E8E8"/>
</svg>
